<?xml version="1.0" standalone="no"?>
<!DOCTYPE svg PUBLIC "-//W3C//DTD SVG 20010904//EN"
 "http://www.w3.org/TR/2001/REC-SVG-20010904/DTD/svg10.dtd">
<svg version="1.0" xmlns="http://www.w3.org/2000/svg"
 width="250.000000pt" height="600.000000pt" viewBox="0 0 250.000000 600.000000"
 preserveAspectRatio="xMidYMid meet">

<g transform="translate(0.000000,600.000000) scale(0.100000,-0.100000)"
fill="#000000" stroke="none">
<path d="M0 5490 l0 -510 715 0 715 0 0 510 0 510 -715 0 -715 0 0 -510z
m1067 264 c44 -25 99 -103 90 -127 -2 -6 -34 -20 -71 -31 -69 -19 -81 -30 -43
-40 34 -9 98 -66 113 -102 32 -76 6 -187 -54 -231 -60 -45 -180 -56 -262 -25
-54 21 -113 92 -108 130 3 22 13 29 72 49 39 12 72 23 75 23 4 0 13 -15 21
-33 12 -26 21 -32 45 -32 20 0 30 5 30 15 0 16 -18 26 -116 69 -87 38 -119 78
-126 159 -10 105 49 180 157 203 54 11 131 0 177 -27z m-607 19 c0 -17 38
-194 42 -199 3 -2 15 38 28 90 l22 94 42 6 c157 20 149 21 142 -5 -3 -13 -41
-145 -85 -294 l-78 -270 -89 -3 -89 -3 -19 68 c-10 37 -26 95 -36 128 -9 33
-28 96 -40 140 -13 44 -33 115 -46 158 -13 43 -24 80 -24 82 0 2 26 6 58 8
115 7 172 7 172 0z"/>
<path d="M900 5738 c-95 -27 -137 -132 -88 -219 18 -32 34 -44 107 -75 106
-45 123 -59 119 -98 -4 -38 -36 -56 -101 -56 -38 0 -53 5 -73 25 -29 29 -34
30 -58 12 -17 -12 -16 -15 10 -46 52 -62 140 -79 213 -41 53 27 81 74 81 139
0 44 -5 56 -36 90 -24 27 -56 48 -103 66 -78 29 -111 56 -111 89 0 36 30 56
84 56 36 0 52 -5 71 -24 17 -17 31 -22 49 -19 31 6 32 13 5 47 -39 49 -109 72
-169 54z"/>
<path d="M920 5625 c0 -15 58 -51 67 -41 3 3 -2 17 -11 31 -18 27 -56 34 -56
10z"/>
<path d="M348 5733 c-21 -2 -38 -10 -38 -16 0 -7 31 -118 68 -247 l67 -235 39
0 39 0 68 235 c38 129 68 241 69 248 0 9 -10 12 -27 10 -26 -3 -28 -8 -51
-108 -46 -200 -50 -210 -82 -210 -31 0 -31 1 -77 234 -10 49 -22 90 -28 91 -5
1 -27 0 -47 -2z"/>
</g>
</svg>
